<svg xmlns="http://www.w3.org/2000/svg" id="Layer_2" data-name="Layer 2" viewBox="0 0 256.582 211.956">
    <g fill="#fff">
      <path d="M63.852 11.036a45.75 45.75 0 0 1-3.6 10.8c-.9 1.9-1.5 3.9-2.2 5.8-.9 2.8-1.6 5.6-2.5 8.4-2.5 8.3-4.5 16.6-6.9 24.9-1.5 5.1-3.2 13.5-8.5 16.1-2 1-5.4.7-6.9-1.1a6.025 6.025 0 0 1-1.1-2.6c-1.4-5.3-2.7-10.4-3.7-15.8 0-.1-.1-.2-.1-.3l-.6-.5c-.2.2-.4.4-.4.6-1.6 5.6-2.2 12-5.2 17.2-1.6 2.7-5.6 4.8-8.4 2a6.594 6.594 0 0 1-1.3-2.8c-1-3.8-2-7.7-2.8-11.6-.6-3.5-.8-7-1.4-10.5-.7-4.4-1.5-8.9-2.2-13.4a225.27 225.27 0 0 1-3-27c0-2.4.1-5.6 1.9-7.4 2.7-2.7 5.8.6 6.6 3.3 2 6.6 2.7 13.6 3.1 20.5s1.9 13.7 3.4 20.4a3.92 3.92 0 0 0 .9 2.4c.6-2.5 1.1-5.1 1.8-7.7.6-1.8 1.2-3.6 1.9-5.4.3-.9.7-1.8 1-2.7a13.043 13.043 0 0 1 1-2.5c.5-1 1.3-2.3 2.6-2.2a8.216 8.216 0 0 1 4.2 1.5 8.259 8.259 0 0 1 2.8 4.2 57.7 57.7 0 0 1 2.1 7.1c1 3.6 1.8 7.1 2.6 10.7l.2 1.1c0 .2.1.3.2.5a2.245 2.245 0 0 0 .5-.3c.2-.6.5-1.1.7-1.7.6-1.7 1.3-3.4 1.9-5.2 1.1-3.3 2.1-6.6 3.2-9.9.9-2.7 1.8-5.4 2.6-8.1 1.3-4.3 2.6-8.6 3.7-13 1.2-4.1 1.1-9.3 4.5-12.4a5.211 5.211 0 0 1 3.7-1.1 2.033 2.033 0 0 1 2.1 1.3 15.835 15.835 0 0 1 1.4 2.6 6.226 6.226 0 0 1 .2 3.8zM182.149 77.141c-1.4 1-4 .9-5.6.7a6.553 6.553 0 0 1-2.1-.8 4.606 4.606 0 0 1-1.7-2.6c-1.6-5.8-1.7-11.8-3.7-17.6-.5-1.3-1.1-3-2.3-3.8-1-.7-3-.5-3.1.5-.4 2.4.3 5.4.5 7.9a87.8 87.8 0 0 1 0 8.9 10.418 10.418 0 0 1-.8 3.9 6.245 6.245 0 0 1-4.4 3.3c-1.2.2-4.1.5-5-.7a8.728 8.728 0 0 1-1.9-5.9c.2-9.3.2-18.5.1-27.8-.1-6.3-.3-12.6-.7-18.9-.2-3-.3-5.9-.4-8.9 0-3 .1-6.1.1-9.1a6.456 6.456 0 0 1 .4-1.9c.6-1.1 2.2-1.3 3.5-1.3 4.3.1 11.2.9 15 3 5.4 2.9 8 8.3 8.9 14.2.6 4 1.3 8 1.6 12a27.464 27.464 0 0 1 0 6.4 9.423 9.423 0 0 1-3.8 6.7c-.9.7-1.4.6-1.3 1.7.2 1.6 1.6 3.3 2.3 4.7a76.61 76.61 0 0 1 4.3 11.6 70.72 70.72 0 0 1 1.6 8 12.357 12.357 0 0 1 .2 1.8 4.246 4.246 0 0 1-1.7 4zm-13.6-45a28.95 28.95 0 0 0-.9-14.3 4.933 4.933 0 0 0-1.1-2.3c-.5-.7-3.3-1.2-4.2-1.2-2.7 0-1.1 5.9-.9 7.5l.6 9.7c.1 1.7.1 3.5.1 5.2 0 1.5-.6 3.3 1.8 2.4 2.7-1 3.2-2.1 3.6-3.3a15.57 15.57 0 0 0 .999-3.703zM222.229 70.54a4.72 4.72 0 0 1-1.1 3.6c-1.3 1.5-3.4 1.7-5.4 1.9-5.1.4-14.9.8-20 1.2a7.1 7.1 0 0 1-4.1-.5c-1.7-.9-2.4-3.1-2.7-5-1.8-9.5-1.4-19.7-.6-29.3.7-8.2 1-16.5 1-24.8.1-4-1.4-18.2 6.6-14.8a4.1 4.1 0 0 1 2.6 3.8 53.861 53.861 0 0 1-.3 5.7c-.1 2.1-.3 4.2-.4 6.3-.1 1.9 0 3.8 0 5.8.1 6.6.2 13.3 0 20-.3 6.5-.6 13-.8 19.5a2.541 2.541 0 0 0 .2 1.2c1 2 10.4 1.3 12.1 1 2.7-.4 5.3-1.2 8.1-1.6a3.553 3.553 0 0 1 3.3.7 5.224 5.224 0 0 1 .7 1.5c.2.8.5 1.6.7 2.5 0 .4.1.8.1 1.3zM256.847 60.839c-1.7 12.9-14.1 16.4-25.3 16.9a4.66 4.66 0 0 1-4.6-3.1c-.6-2.6 0-6 .1-8.7.1-5.7.3-11.4.7-17.1.7-8.2.3-16.6.1-24.9l-.3-9.9-.3-4.9c0-1.1-.4-2.6-.1-3.6a2.148 2.148 0 0 1 .9-1.2c3.4-3 8.1-.9 11.1 1.7 1.8 1.6 3 3.8 4.5 5.7 1.6 2.1 3.1 4.3 4.5 6.5a54.535 54.535 0 0 1 4.5 9.8 79.874 79.874 0 0 1 4.7 23.8 45.32 45.32 0 0 1-.5 9zm-12-16.2a39 39 0 0 0-.7-9 38.737 38.737 0 0 0-6.9-16.3c-.1-.2-.3-.2-.4-.3-.1.2-.2.3-.2.5.2 12.4 1 24.7.2 37.1-.1 2.6-.6 5.3-.7 7.9-.1 1.3-.5 3.4 1.2 2.6 3-1.3 3.9-2.3 4.7-5.4a56.717 56.717 0 0 0 1.6-8.2 32.659 32.659 0 0 1 .7-4.5 21.975 21.975 0 0 0 .499-4.4zM24.218 129.312c0 3.723.152 7.448-1.6 10.868a11 11 0 0 1-5.472 5.169 4.873 4.873 0 0 1-1.825.3c-1.14 0-2.2 0-3.268-.076a8.627 8.627 0 0 1-6-2.964c-2.736-3.192-3.649-6.992-4.1-11.02-.228-2.433-.76-4.864-.912-7.3-.3-3.192-.228-6.46-.228-9.652a48.221 48.221 0 0 1 .684-7.372A34.6 34.6 0 0 1 3.165 99.9a27.059 27.059 0 0 1 2.964-6.156 12.254 12.254 0 0 1 4.408-4.408 6.584 6.584 0 0 1 5.852-.228 15.108 15.108 0 0 1 3.573 2.052 4.011 4.011 0 0 1 .836.76 2.576 2.576 0 0 1-.457 3.877 4.648 4.648 0 0 1-3.191.531c-1.064-.227-2.129-.607-3.193-.911-3.42-.837-3.876 5.548-4.028 7.6-.152 2.965 0 5.928.076 8.816v10.717c-.076 3.268.76 6.688 1.368 9.881a39.623 39.623 0 0 0 .76 4.332 1.914 1.914 0 0 0 3.648.152A11.5 11.5 0 0 0 17 132.731a12.232 12.232 0 0 1 .761-4.028c1.063-1.975 4.94-4.256 6.232-1.14a4.448 4.448 0 0 1 .152.989 2.844 2.844 0 0 1 .073.76zM52.2 141.853a4.755 4.755 0 0 1-2.509 3.571 3.88 3.88 0 0 1-2.279.076c-.153-.076-.3-.076-.456-.151a1.3 1.3 0 0 1-.456-.456 5.775 5.775 0 0 1-1.292-4.637c.759-5.472 0-10.412-.761-15.809-.076-.3-.38-.38-.684-.3-1.444.456-6.005.379-7.524.227-.836-.076-.836-.076-.836.608v9.2c0 2.431.532 5.32-.076 7.677a5.631 5.631 0 0 1-2.433 3.04 3.159 3.159 0 0 1-2.964-.229 5.407 5.407 0 0 1-1.672-4.332l-.228-10.641c-.075-1.9 0-3.876-.075-5.852 0-7.448-.229-14.973-.229-22.5.076-2.584.076-5.092.153-7.677 0-1.823.227-3.344 1.824-4.483a4 4 0 0 1 1.824-.609 3.094 3.094 0 0 1 3.344 2.433c1.064 3.952.76 8.056.76 12.084 0 4.257 0 8.589-.3 12.845-.076.3.076.532.456.532a68.343 68.343 0 0 1 7.9.076c.3 0 .38-.076.38-.38a117.069 117.069 0 0 1 .685-14.593c.456-3.648.683-7.373 1.139-11.02a2.419 2.419 0 0 1 3.952-1.521 5.179 5.179 0 0 1 2.281 3.8c.152 1.977 0 4.028.076 6.081-.3 3.8-.229 7.676-.152 11.477.076 4.559.228 9.12.3 13.68 0 2.661.076 5.321.153 7.981.004 3.264.004 6.533-.301 9.802zM62.862 145.424c-2.889.912-3.725-4.484-4.1-6.308a19.3 19.3 0 0 1-.228-4.18c0-5.777-.381-11.553-.532-17.33-.076-2.355-.229-4.711-.229-7.068-.076-2.584-.076-5.092-.076-7.6v-7.449a10.956 10.956 0 0 1 .456-4.408 5.424 5.424 0 0 1 .988-1.672c.989-1.139 2.281-.988 3.573-.607 3.343.911 2.888 5.548 3.04 8.284.152 3.42 0 6.992.152 10.412.228 3.648.532 7.373.532 11.021.228 4.864 0 9.5 0 14.365-.004 3.952 1.362 10.868-3.576 12.54zM97.388 140.028a3.579 3.579 0 0 1-.836 2.736c-.987 1.14-2.584 1.293-4.1 1.444-3.877.305-11.325.608-15.2.912a5.4 5.4 0 0 1-3.116-.38c-1.292-.683-1.825-2.356-2.052-3.8-1.368-7.22-1.065-14.973-.456-22.269.531-6.233.759-12.541.759-18.849.077-3.041-1.064-13.833 5.017-11.249a3.117 3.117 0 0 1 1.976 2.888 41.646 41.646 0 0 1-.228 4.333c-.076 1.6-.228 3.191-.3 4.788-.076 1.444 0 2.888 0 4.408.077 5.017.153 10.109 0 15.2-.227 4.94-.456 9.88-.607 14.821a1.941 1.941 0 0 0 .151.912c.761 1.52 7.905.988 9.2.76 2.051-.3 4.027-.913 6.156-1.216a2.69 2.69 0 0 1 2.508.532 4 4 0 0 1 .532 1.14c.151.608.38 1.215.532 1.9-.011.305.064.609.064.989zM123.7 132.655c-1.292 9.805-10.717 12.465-19.23 12.845a3.542 3.542 0 0 1-3.5-2.355c-.456-1.977 0-4.561.076-6.613.077-4.333.228-8.665.533-13a174.849 174.849 0 0 0 .075-18.925l-.228-7.524-.228-3.725a11.044 11.044 0 0 1-.075-2.736 1.633 1.633 0 0 1 .683-.912c2.584-2.279 6.156-.684 8.437 1.293a31.768 31.768 0 0 1 3.42 4.332 72.665 72.665 0 0 1 3.421 4.94 41.582 41.582 0 0 1 3.42 7.449 60.757 60.757 0 0 1 3.572 18.088 34.439 34.439 0 0 1-.376 6.843zm-9.121-12.312a31.641 31.641 0 0 0-5.777-19.229c-.076-.152-.227-.152-.3-.228-.076.152-.153.228-.153.38.153 9.424.761 18.773.153 28.2-.076 1.975-.456 4.027-.533 6-.076.988-.379 2.584.913 1.976 2.28-.988 2.963-1.749 3.572-4.1a43.179 43.179 0 0 0 1.216-6.233 24.681 24.681 0 0 1 .532-3.419 16.726 16.726 0 0 0 .377-3.347zM150.991 145.044c-1.065.761-3.04.685-4.257.532a5 5 0 0 1-1.6-.608 3.49 3.49 0 0 1-1.292-1.976c-1.215-4.408-1.292-8.969-2.812-13.377a5.941 5.941 0 0 0-1.748-2.887c-.76-.533-2.28-.38-2.357.379-.3 1.825.229 4.1.381 6a67.246 67.246 0 0 1 0 6.765 7.947 7.947 0 0 1-.608 2.964 4.757 4.757 0 0 1-3.344 2.509c-.912.151-3.116.38-3.8-.533a6.637 6.637 0 0 1-1.444-4.484c.152-7.068.152-14.061.076-21.129-.076-4.788-.227-9.577-.532-14.365-.151-2.28-.228-4.484-.3-6.764 0-2.28.076-4.636.076-6.917a4.971 4.971 0 0 1 .3-1.444c.456-.836 1.672-.987 2.66-.987 3.269.076 8.513.683 11.4 2.28 4.1 2.2 6.081 6.307 6.764 10.792.456 3.04.989 6.08 1.216 9.12a20.77 20.77 0 0 1 0 4.864 7.159 7.159 0 0 1-2.888 5.093c-.684.532-1.064.456-.988 1.292.152 1.216 1.216 2.508 1.748 3.572a58.291 58.291 0 0 1 3.269 8.817 53.781 53.781 0 0 1 1.216 6.08 9.4 9.4 0 0 1 .152 1.368 3.226 3.226 0 0 1-1.288 3.044zm-10.337-34.2a22 22 0 0 0-.684-10.869 3.738 3.738 0 0 0-.837-1.748c-.379-.533-2.507-.913-3.191-.913-2.053 0-.836 4.485-.684 5.7l.456 7.373c.076 1.292.076 2.66.076 3.952 0 1.14-.456 2.508 1.368 1.824 2.052-.761 2.432-1.6 2.736-2.509a11.838 11.838 0 0 0 .76-2.811zM169.024 96.706c-1.6 0-6.687-.685-6.916.836-.3 2.432.532 5.016.836 7.372.076 1.292-.228 9.273.76 9.576.912.153 1.824.229 2.66.456 3.572.989 3.345 5.929.608 7.677-.912.532-2.28-.3-3.116.228-.76.608-.38 2.585-.38 3.42a21.794 21.794 0 0 1-.3 3.117 66.03 66.03 0 0 0-.609 4.1c-.152.761-1.064 3.345.229 3.041a20.625 20.625 0 0 1 6.08.38c1.9.3 3.876.151 5.776.76a2.654 2.654 0 0 1 2.052 3.192 4.158 4.158 0 0 1-1.672 3.573c-1.9 1.215-4.332.987-6.536 1.063-1.977.076-3.952.152-5.929.152-1.6.153-3.344.38-4.712-.684a4.128 4.128 0 0 1-1.748-2.28c-1.444-4.408-.076-9.88.228-14.517.3-4.332-.153-8.664-.228-13.072-.152-4.409.152-8.817.152-13.225.076-3.5.076-6.916.228-10.413 0-3.268 5.548-2.735 7.676-2.659 1.6.075 3.192.3 4.789.38 2.279 0 4.788-.609 6 1.595a1.76 1.76 0 0 1 .38 1.14 3.783 3.783 0 0 1-.076 1.6c-.836 2.66-3.42 2.887-6 3.116a.775.775 0 0 1-.232.076zM211.449 97.01c.075 3.116 0 6.308-.076 9.5-.153 6-.38 12.161-.456 18.09-.229 5.851 1.063 11.932-1.368 17.48a4.477 4.477 0 0 1-1.825 2.28 3.556 3.556 0 0 1-1.976.38c-2.812-.076-3.344-4.484-4.484-7.372-1.52-3.5-3.192-6.993-4.408-10.564-1.9-5.245-3.724-10.49-5.7-15.81a1.641 1.641 0 0 0-.38-.227c-.076.151-.227.227-.227.379a148.2 148.2 0 0 0-.989 16.341 82.41 82.41 0 0 0 .84 12.313 6.722 6.722 0 0 1-.227 2.736c-.989 2.357-4.713 3.04-6.917 2.28-2.281-.684-2.584-2.812-2.432-4.94.38-7.3.456-14.593.836-21.965.456-5.4 1.14-10.793 1.14-16.189-.077-2.432-.152-4.788-.3-7.145-.152-2.052-.076-3.42 1.444-4.939a3.036 3.036 0 0 1 3.116-.456 6.015 6.015 0 0 1 1.6.38 6.257 6.257 0 0 1 1.368.988 12.96 12.96 0 0 1 3.04 4.559c1.748 3.953 3.269 7.905 5.017 11.933.912 2.28 1.824 4.637 2.811 6.841a36.673 36.673 0 0 0 1.217 3.04c.075.38.3.38.456.152a1.775 1.775 0 0 0 .456-1.368c-.076-1.6-.228-3.192-.3-4.789 0-2.584-.076-5.244-.152-7.828l-.456-7.752v-.229c0-.912-.076-1.748-.076-2.66a5.345 5.345 0 0 1 .151-2.508l.153-.228a3.035 3.035 0 0 1 1.216-1.52 3.31 3.31 0 0 1 1.9-.38 9.762 9.762 0 0 0 2.584 0 3.058 3.058 0 0 1 1.977.608 4.885 4.885 0 0 1 1.139 1.9c0 .229.076.456.076.685a26.154 26.154 0 0 1 .212 6.004zM225.613 94.2v1.065c-.3 3.648-.152 11.02-4.637 12.085a5.051 5.051 0 0 1-2.128 0 3.268 3.268 0 0 1-1.824-2.053c-1.14-2.812-.456-6.08.305-8.893.38-1.519.532-3.42 1.748-4.484a4.191 4.191 0 0 1 4.484-.456 3.815 3.815 0 0 1 2.052 2.736zM251.871 130.071a20.194 20.194 0 0 1-1.671 10.109 9.491 9.491 0 0 1-5.4 5.169c-4.179 1.215-9.652-1.141-12.388-4.409-2.508-3.041-4.029-8.209-1.748-11.857 1.14-1.823 4.18-.228 5.472.761 1.292 1.063 2.052 2.584 3.269 3.723a1.57 1.57 0 0 0 2.128-.379 3.959 3.959 0 0 0 .531-1.6 17.664 17.664 0 0 0-.987-9.5 31.316 31.316 0 0 0-4.864-7.828 27.327 27.327 0 0 1-4.181-7.753c-1.216-3.192-2.2-6.613-1.824-10.032.38-2.964 2.052-6.46 5.169-7.373 3.42-1.064 7.752.38 10.564 2.356 1.6 1.217 3.268 3.116 3.344 5.245.076 1.672-1.672 3.5-3.5 2.964s-2.888-2.2-4.712-2.736a1.919 1.919 0 0 0-1.292-.077 1.474 1.474 0 0 0-.761 1.292 3.4 3.4 0 0 0 .3 1.521c1.368 3.572 3.42 6.916 5.092 10.337l3.419 7.448c1.6 3.648 3.193 7.3 3.8 11.172zM25.434 200.655C24.142 210.46 14.717 213.12 6.205 213.5a3.542 3.542 0 0 1-3.5-2.355c-.456-1.977 0-4.561.076-6.613.076-4.333.228-8.665.532-13a174.593 174.593 0 0 0 .076-18.925l-.228-7.524-.228-3.725a11.1 11.1 0 0 1-.076-2.736 1.634 1.634 0 0 1 .684-.912c2.584-2.279 6.156-.684 8.436 1.293a31.852 31.852 0 0 1 3.421 4.332 72.276 72.276 0 0 1 3.419 4.94 41.377 41.377 0 0 1 3.421 7.449 60.694 60.694 0 0 1 3.572 18.088 34.439 34.439 0 0 1-.376 6.843zm-9.121-12.312a29.616 29.616 0 0 0-.532-6.84 29.448 29.448 0 0 0-5.244-12.389c-.076-.152-.228-.152-.3-.228-.076.152-.152.228-.152.38.152 9.424.76 18.773.152 28.2-.076 1.975-.456 4.027-.532 6-.076.988-.38 2.584.912 1.976 2.28-.988 2.964-1.749 3.572-4.1a43.181 43.181 0 0 0 1.217-6.233 24.531 24.531 0 0 1 .531-3.419 16.726 16.726 0 0 0 .376-3.347zM57.2 211.448a3.318 3.318 0 0 1-2.965 2.128 2.814 2.814 0 0 1-2.355-1.216 10.6 10.6 0 0 1-1.825-5.244c-.3-2.812-.836-5.625-1.216-8.36a5.887 5.887 0 0 1-.152-1.141c-.076-.532-.38-.607-.76-.456-2.508.685-5.016.229-7.524.076-1.064-.076-2.128-.076-3.116-.076-.153 0-.3.229-.3.38-.836 2.433-1.6 4.94-2.355 7.373-.533 1.672-1.141 3.268-1.748 4.941a18.6 18.6 0 0 1-1.216 2.811 2.819 2.819 0 0 1-4.865-2.811c.38-1.369.912-2.813 1.292-4.257.532-2.128.913-4.256 1.52-6.384.608-2.357 1.368-4.713 2.128-7.068a196.38 196.38 0 0 1 2.585-7.145c.836-2.509 1.823-4.94 2.659-7.448s1.6-5.017 2.433-7.6a103.965 103.965 0 0 1 4.256-11.476c.38-.761.76-1.6 1.824-1.748a5.673 5.673 0 0 1 2.965.456 4.967 4.967 0 0 1 .607.683 14.56 14.56 0 0 1 2.2 5.244 48.42 48.42 0 0 1 1.292 5.017c.456 2.2.761 4.484 1.141 6.765l1.139 7.143c.077.305.077.685.153 1.065h-.076c.152 1.672.227 3.343.379 4.94.153 2.28.3 4.484.609 6.689.151 1.292.456 2.584.683 3.876a72.424 72.424 0 0 1 1.216 8.436 10.887 10.887 0 0 1-.608 4.407zm-9.349-21.205c.3-.228.076-.608 0-.912-.152-.836-.076-1.824-.152-2.66-.151-1.824-.228-3.572-.38-5.32a2.846 2.846 0 0 0-.076-.836 8.733 8.733 0 0 0-.076-1.445c0-.607-.076-1.216-.076-1.824-.076-1.216-.228-2.432-.3-3.724 0-.228-.228-2.052-.684-1.064l-2.964 7.068c-.76 1.825-1.368 3.725-2.052 5.549l-1.825 4.94c-.076.076 0 .228 0 .381a3.476 3.476 0 0 0 1.217-.229h1.292c1.443 0 2.888.076 4.332.076a6.477 6.477 0 0 0 1.292.076.962.962 0 0 0 .454-.076zM87.829 164.325c-1.672 3.345-3.269 6.689-4.637 10.11-.684 1.519-1.292 3.116-1.9 4.635-.533 1.216-1.292 2.281-1.748 3.42a9.79 9.79 0 0 0-.609 2.889 42.986 42.986 0 0 0 .153 6.992c.151 2.584.151 5.244.075 7.9-.075 3.193 0 6.917-1.14 9.957a5.578 5.578 0 0 1-1.9 2.661c-2.356 1.748-4.788.531-5.321-2.281a15.07 15.07 0 0 1 0-3.192 173.981 173.981 0 0 0-.379-21.814 7.2 7.2 0 0 0-1.14-3.876c-2.128-2.887-4.105-5.927-6.309-8.74a33.843 33.843 0 0 1-4.634-6.686c-.837-1.748-2.433-4.029-2.205-6a3.82 3.82 0 0 1 1.824-2.736c1.216-.76 3.041-1.292 4.257-.38 2.584 1.748 4.1 5.168 5.7 7.752 1.748 2.736 3.572 5.472 5.472 7.98a1.648 1.648 0 0 0 .532.456c.152-.152.38-.3.456-.532a48.012 48.012 0 0 1 1.9-4.56c.836-1.748 1.9-3.344 2.813-5.016 1.292-2.357 1.824-6.46 5.32-6.46a11.365 11.365 0 0 1 1.6.151 2.525 2.525 0 0 1 2.2 1.292 6.316 6.316 0 0 1 .456 1.6 8.935 8.935 0 0 1-.836 4.478z" class="cls-1" transform="translate(-.8 -2)"/>
      <path fill="none" d="M104.916 2A39.685 39.685 0 1 0 144.6 41.687 39.734 39.734 0 0 0 104.916 2z" transform="translate(-.8 -2)"/>
        </g>
</svg>