<svg version="1.1" xmlns="http://www.w3.org/2000/svg" xmlns:xlink="http://www.w3.org/1999/xlink" viewBox="0 0 1141.739 109.438">
    <g fill="#fff">
      <path d="M484.635 56.093a45.664 45.664 0 0 1-3.6 10.8c-.9 1.9-1.5 3.9-2.2 5.8-.9 2.8-1.6 5.6-2.5 8.4-2.5 8.3-4.5 16.6-6.9 24.9-1.5 5.1-3.2 13.5-8.5 16.1-2 1-5.4.7-6.9-1.1a6.045 6.045 0 0 1-1.1-2.6c-1.4-5.3-2.7-10.4-3.7-15.8 0-.1-.1-.2-.1-.3l-.6-.5c-.2.2-.4.4-.4.6-1.6 5.6-2.2 12-5.2 17.2-1.6 2.7-5.6 4.8-8.4 2a6.575 6.575 0 0 1-1.3-2.8c-1-3.8-2-7.7-2.8-11.6-.6-3.5-.8-7-1.4-10.5-.7-4.4-1.5-8.9-2.2-13.4a225.478 225.478 0 0 1-3-27c0-2.4.1-5.6 1.9-7.4 2.7-2.7 5.8.6 6.6 3.3 2 6.6 2.7 13.6 3.1 20.5s1.9 13.7 3.4 20.4a3.927 3.927 0 0 0 .9 2.4c.6-2.5 1.1-5.1 1.8-7.7.6-1.8 1.2-3.6 1.9-5.4.3-.9.7-1.8 1-2.7a13.069 13.069 0 0 1 1-2.5c.5-1 1.3-2.3 2.6-2.2a7.558 7.558 0 0 1 7 5.7 57.723 57.723 0 0 1 2.1 7.1c1 3.6 1.8 7.1 2.6 10.7l.2 1.1c0 .2.1.3.2.5a2.222 2.222 0 0 0 .5-.3c.2-.6.5-1.1.7-1.7.6-1.7 1.3-3.4 1.9-5.2 1.1-3.3 2.1-6.6 3.2-9.9.9-2.7 1.8-5.4 2.6-8.1 1.3-4.3 2.6-8.6 3.7-13 1.2-4.1 1.1-9.3 4.5-12.4a5.207 5.207 0 0 1 3.7-1.1 2.03 2.03 0 0 1 2.1 1.3 16 16 0 0 1 1.4 2.6 6.226 6.226 0 0 1 .2 3.8zM602.931 122.2c-1.4 1-4 .9-5.6.7a6.537 6.537 0 0 1-2.1-.8 4.6 4.6 0 0 1-1.7-2.6c-1.6-5.8-1.7-11.8-3.7-17.6-.5-1.3-1.1-3-2.3-3.8-1-.7-3-.5-3.1.5-.4 2.4.3 5.4.5 7.9a88.067 88.067 0 0 1 0 8.9 10.443 10.443 0 0 1-.8 3.9 6.249 6.249 0 0 1-4.4 3.3c-1.2.2-4.1.5-5-.7a8.721 8.721 0 0 1-1.9-5.9c.2-9.3.2-18.5.1-27.8-.1-6.3-.3-12.6-.7-18.9-.2-3-.3-5.9-.4-8.9 0-3 .1-6.1.1-9.1a6.473 6.473 0 0 1 .4-1.9c.6-1.1 2.2-1.3 3.5-1.3 4.3.1 11.2.9 15 3 5.4 2.9 8 8.3 8.9 14.2.6 4 1.3 8 1.6 12a27.4 27.4 0 0 1 0 6.4 9.42 9.42 0 0 1-3.8 6.7c-.9.7-1.4.6-1.3 1.7.2 1.6 1.6 3.3 2.3 4.7a76.424 76.424 0 0 1 4.3 11.6 70.988 70.988 0 0 1 1.6 8 12.507 12.507 0 0 1 .2 1.8 4.248 4.248 0 0 1-1.7 4zm-13.6-45a28.956 28.956 0 0 0-.9-14.3 4.92 4.92 0 0 0-1.1-2.3c-.5-.7-3.3-1.2-4.2-1.2-2.7 0-1.1 5.9-.9 7.5l.6 9.7c.1 1.7.1 3.5.1 5.2 0 1.5-.6 3.3 1.8 2.4 2.7-1 3.2-2.1 3.6-3.3a15.543 15.543 0 0 0 .998-3.706zM643.011 115.6a4.716 4.716 0 0 1-1.1 3.6c-1.3 1.5-3.4 1.7-5.4 1.9-5.1.4-14.9.8-20 1.2a7.113 7.113 0 0 1-4.1-.5c-1.7-.9-2.4-3.1-2.7-5-1.8-9.5-1.4-19.7-.6-29.3.7-8.2 1-16.5 1-24.8.1-4-1.4-18.2 6.6-14.8a4.1 4.1 0 0 1 2.6 3.8 54.147 54.147 0 0 1-.3 5.7c-.1 2.1-.3 4.2-.4 6.3-.1 1.9 0 3.8 0 5.8.1 6.6.2 13.3 0 20-.3 6.5-.6 13-.8 19.5a2.537 2.537 0 0 0 .2 1.2c1 2 10.4 1.3 12.1 1 2.7-.4 5.3-1.2 8.1-1.6a3.547 3.547 0 0 1 3.3.7 5.226 5.226 0 0 1 .7 1.5c.2.8.5 1.6.7 2.5-.001.4.1.8.1 1.3zM677.629 105.9c-1.7 12.9-14.1 16.4-25.3 16.9a4.66 4.66 0 0 1-4.6-3.1c-.6-2.6 0-6 .1-8.7.1-5.7.3-11.4.7-17.1.7-8.2.3-16.6.1-24.9l-.3-9.9-.3-4.9c0-1.1-.4-2.6-.1-3.6a2.147 2.147 0 0 1 .9-1.2c3.4-3 8.1-.9 11.1 1.7 1.8 1.6 3 3.8 4.5 5.7 1.6 2.1 3.1 4.3 4.5 6.5a54.535 54.535 0 0 1 4.5 9.8 79.868 79.868 0 0 1 4.7 23.8 45.32 45.32 0 0 1-.5 9zm-12-16.2a39.056 39.056 0 0 0-.7-9 38.752 38.752 0 0 0-6.9-16.3c-.1-.2-.3-.2-.4-.3-.1.2-.2.3-.2.5.2 12.4 1 24.7.2 37.1-.1 2.6-.6 5.3-.7 7.9-.1 1.3-.5 3.4 1.2 2.6 3-1.3 3.9-2.3 4.7-5.4a56.584 56.584 0 0 0 1.6-8.2 32.508 32.508 0 0 1 .7-4.5 21.984 21.984 0 0 0 .499-4.4zM740.227 101.5c0 4.9.2 9.8-2.1 14.3a14.468 14.468 0 0 1-7.2 6.8 6.4 6.4 0 0 1-2.4.4c-1.5 0-2.9 0-4.3-.1a11.364 11.364 0 0 1-7.9-3.9c-3.6-4.2-4.8-9.2-5.4-14.5-.3-3.2-1-6.4-1.2-9.6-.4-4.2-.3-8.5-.3-12.7a63.643 63.643 0 0 1 .9-9.7 45.452 45.452 0 0 1 2.2-9.7 35.494 35.494 0 0 1 3.9-8.1 16.12 16.12 0 0 1 5.8-5.8 8.659 8.659 0 0 1 7.7-.3 19.763 19.763 0 0 1 4.7 2.7 5.241 5.241 0 0 1 1.1 1 3.389 3.389 0 0 1-.6 5.1 6.121 6.121 0 0 1-4.2.7c-1.4-.3-2.8-.8-4.2-1.2-4.5-1.1-5.1 7.3-5.3 10-.2 3.9 0 7.8.1 11.6v14.1c-.1 4.3 1 8.8 1.8 13 .4 1.8.4 4 1 5.7a2.518 2.518 0 0 0 4.8.2 15.18 15.18 0 0 0 1.6-5.5 16.065 16.065 0 0 1 1-5.3c1.4-2.6 6.5-5.6 8.2-1.5a5.812 5.812 0 0 1 .2 1.3 3.758 3.758 0 0 1 .1 1zM777.047 118a6.26 6.26 0 0 1-3.3 4.7 5.124 5.124 0 0 1-3 .1c-.2-.1-.4-.1-.6-.2a1.706 1.706 0 0 1-.6-.6 7.6 7.6 0 0 1-1.7-6.1c1-7.2 0-13.7-1-20.8-.1-.4-.5-.5-.9-.4-1.9.6-7.9.5-9.9.3-1.1-.1-1.1-.1-1.1.8v12.1c0 3.2.7 7-.1 10.1a7.411 7.411 0 0 1-3.2 4 4.161 4.161 0 0 1-3.9-.3 7.117 7.117 0 0 1-2.2-5.7l-.3-14c-.1-2.5 0-5.1-.1-7.7 0-9.8-.3-19.7-.3-29.6.1-3.4.1-6.7.2-10.1 0-2.4.3-4.4 2.4-5.9a5.249 5.249 0 0 1 2.4-.8 4.07 4.07 0 0 1 4.4 3.2c1.4 5.2 1 10.6 1 15.9 0 5.6 0 11.3-.4 16.9-.1.4.1.7.6.7a90.24 90.24 0 0 1 10.4.1c.4 0 .5-.1.5-.5a154.28 154.28 0 0 1 .9-19.2c.6-4.8.9-9.7 1.5-14.5.3-2.5 3.1-3.5 5.2-2a6.807 6.807 0 0 1 3 5c.2 2.6 0 5.3.1 8-.4 5-.3 10.1-.2 15.1.1 6 .3 12 .4 18 0 3.5.1 7 .2 10.5 0 4.3 0 8.6-.4 12.9zM791.074 122.7c-3.8 1.2-4.9-5.9-5.4-8.3a25.392 25.392 0 0 1-.3-5.5c0-7.6-.5-15.2-.7-22.8-.1-3.1-.3-6.2-.3-9.3-.1-3.4-.1-6.7-.1-10V57c0-1.9-.2-3.9.6-5.8a7.108 7.108 0 0 1 1.3-2.2c1.3-1.5 3-1.3 4.7-.8 4.4 1.2 3.8 7.3 4 10.9.2 4.5 0 9.2.2 13.7.3 4.8.7 9.7.7 14.5.3 6.4 0 12.5 0 18.9.001 5.2 1.8 14.3-4.7 16.5zM836.505 115.6a4.716 4.716 0 0 1-1.1 3.6c-1.3 1.5-3.4 1.7-5.4 1.9-5.1.4-14.9.8-20 1.2a7.109 7.109 0 0 1-4.1-.5c-1.7-.9-2.4-3.1-2.7-5-1.8-9.5-1.4-19.7-.6-29.3.7-8.2 1-16.5 1-24.8.1-4-1.4-18.2 6.6-14.8a4.1 4.1 0 0 1 2.6 3.8 53.879 53.879 0 0 1-.3 5.7c-.1 2.1-.3 4.2-.4 6.3-.1 1.9 0 3.8 0 5.8.1 6.6.2 13.3 0 20-.3 6.5-.6 13-.8 19.5a2.537 2.537 0 0 0 .2 1.2c1 2 10.4 1.3 12.1 1 2.7-.4 5.3-1.2 8.1-1.6a3.547 3.547 0 0 1 3.3.7 5.226 5.226 0 0 1 .7 1.5c.2.8.5 1.6.7 2.5-.005.4.1.8.1 1.3zM871.123 105.9c-1.7 12.9-14.1 16.4-25.3 16.9a4.66 4.66 0 0 1-4.6-3.1c-.6-2.6 0-6 .1-8.7.1-5.7.3-11.4.7-17.1.7-8.2.3-16.6.1-24.9l-.3-9.9-.3-4.9c0-1.1-.4-2.6-.1-3.6a2.147 2.147 0 0 1 .9-1.2c3.4-3 8.1-.9 11.1 1.7 1.8 1.6 3 3.8 4.5 5.7 1.6 2.1 3.1 4.3 4.5 6.5a54.535 54.535 0 0 1 4.5 9.8 79.868 79.868 0 0 1 4.7 23.8 45.32 45.32 0 0 1-.5 9zm-12-16.2a39.056 39.056 0 0 0-.7-9 38.752 38.752 0 0 0-6.9-16.3c-.1-.2-.3-.2-.4-.3-.1.2-.2.3-.2.5.2 12.4 1 24.7.2 37.1-.1 2.6-.6 5.3-.7 7.9-.1 1.3-.5 3.4 1.2 2.6 3-1.3 3.9-2.3 4.7-5.4a56.584 56.584 0 0 0 1.6-8.2 32.508 32.508 0 0 1 .7-4.5 21.984 21.984 0 0 0 .499-4.4zM907.033 122.2c-1.4 1-4 .9-5.6.7a6.552 6.552 0 0 1-2.1-.8 4.606 4.606 0 0 1-1.7-2.6c-1.6-5.8-1.7-11.8-3.7-17.6-.5-1.3-1.1-3-2.3-3.8-1-.7-3-.5-3.1.5-.4 2.4.3 5.4.5 7.9a87.485 87.485 0 0 1 0 8.9 10.442 10.442 0 0 1-.8 3.9 6.249 6.249 0 0 1-4.4 3.3c-1.2.2-4.1.5-5-.7a8.725 8.725 0 0 1-1.9-5.9c.2-9.3.2-18.5.1-27.8-.1-6.3-.3-12.6-.7-18.9-.2-3-.3-5.9-.4-8.9 0-3 .1-6.1.1-9.1a6.443 6.443 0 0 1 .4-1.9c.6-1.1 2.2-1.3 3.5-1.3 4.3.1 11.2.9 15 3 5.4 2.9 8 8.3 8.9 14.2.6 4 1.3 8 1.6 12a27.4 27.4 0 0 1 0 6.4 9.423 9.423 0 0 1-3.8 6.7c-.9.7-1.4.6-1.3 1.7.2 1.6 1.6 3.3 2.3 4.7a76.638 76.638 0 0 1 4.3 11.6 70.764 70.764 0 0 1 1.6 8 12.366 12.366 0 0 1 .2 1.8 4.248 4.248 0 0 1-1.7 4zm-13.6-45a28.945 28.945 0 0 0-.9-14.3 4.928 4.928 0 0 0-1.1-2.3c-.5-.7-3.3-1.2-4.2-1.2-2.7 0-1.1 5.9-.9 7.5l.6 9.7c.1 1.7.1 3.5.1 5.2 0 1.5-.6 3.3 1.8 2.4 2.7-1 3.2-2.1 3.6-3.3a15.543 15.543 0 0 0 .999-3.706zM930.762 58.593c-2.1 0-8.8-.9-9.1 1.1-.4 3.2.7 6.6 1.1 9.7.1 1.7-.3 12.2 1 12.6 1.2.2 2.4.3 3.5.6 4.7 1.3 4.4 7.8.8 10.1-1.2.7-3-.4-4.1.3-1 .8-.5 3.4-.5 4.5a28.466 28.466 0 0 1-.4 4.1c-.3 1.7-.6 3.6-.8 5.4-.2 1-1.4 4.4.3 4 2.6-.4 5.3.1 8 .5 2.5.4 5.1.2 7.6 1 2.1.6 2.9 2 2.7 4.2-.1 1.8-.5 3.6-2.2 4.7-2.5 1.6-5.7 1.3-8.6 1.4-2.6.1-5.2.2-7.8.2-2.1.2-4.4.5-6.2-.9a5.446 5.446 0 0 1-2.3-3c-1.9-5.8-.1-13 .3-19.1.4-5.7-.2-11.4-.3-17.2-.2-5.8.2-11.6.2-17.4.1-4.6.1-9.1.3-13.7 0-4.3 7.3-3.6 10.1-3.5 2.1.1 4.2.4 6.3.5 3 0 6.3-.8 7.9 2.1a2.314 2.314 0 0 1 .5 1.5 4.958 4.958 0 0 1-.1 2.1c-1.1 3.5-4.5 3.8-7.9 4.1a1.007 1.007 0 0 1-.3.1zM986.582 58.993c.1 4.1 0 8.3-.1 12.5-.2 7.9-.5 16-.6 23.8-.3 7.7 1.4 15.7-1.8 23a5.888 5.888 0 0 1-2.4 3 4.689 4.689 0 0 1-2.6.5c-3.7-.1-4.4-5.9-5.9-9.7-2-4.6-4.2-9.2-5.8-13.9-2.5-6.9-4.9-13.8-7.5-20.8a2.149 2.149 0 0 0-.5-.3c-.1.2-.3.3-.3.5a195.316 195.316 0 0 0-1.3 21.5 108.439 108.439 0 0 0 1.1 16.2 8.785 8.785 0 0 1-.3 3.6c-1.3 3.1-6.2 4-9.1 3-3-.9-3.4-3.7-3.2-6.5.5-9.6.6-19.2 1.1-28.9.6-7.1 1.5-14.2 1.5-21.3-.1-3.2-.2-6.3-.4-9.4-.2-2.7-.1-4.5 1.9-6.5a4 4 0 0 1 4.1-.6 8.058 8.058 0 0 1 2.1.5 8.354 8.354 0 0 1 1.8 1.3 17.086 17.086 0 0 1 4 6c2.3 5.2 4.3 10.4 6.6 15.7 1.2 3 2.4 6.1 3.7 9 .5 1.4 1 2.7 1.6 4 .1.5.4.5.6.2a2.333 2.333 0 0 0 .6-1.8c-.1-2.1-.3-4.2-.4-6.3 0-3.4-.1-6.9-.2-10.3l-.6-10.2v-.3c0-1.2-.1-2.3-.1-3.5a7.027 7.027 0 0 1 .2-3.3l.2-.3a3.991 3.991 0 0 1 1.6-2 4.327 4.327 0 0 1 2.5-.5 12.943 12.943 0 0 0 3.4 0 4.025 4.025 0 0 1 2.6.8 6.445 6.445 0 0 1 1.5 2.5c0 .3.1.6.1.9.6 2.5.3 5.2.3 7.9zM1005.22 55.293v1.4c-.4 4.8-.2 14.5-6.1 15.9a6.6 6.6 0 0 1-2.8 0 4.293 4.293 0 0 1-2.4-2.7c-1.5-3.7-.6-8 .4-11.7.5-2 .7-4.5 2.3-5.9 1.6-1.5 4.1-1.4 5.9-.6a5.019 5.019 0 0 1 2.7 3.6zM1039.771 102.5a26.593 26.593 0 0 1-2.2 13.3c-1.4 3-3.9 5.8-7.1 6.8-5.5 1.6-12.7-1.5-16.3-5.8-3.3-4-5.3-10.8-2.3-15.6 1.5-2.4 5.5-.3 7.2 1 1.7 1.4 2.7 3.4 4.3 4.9a2.067 2.067 0 0 0 2.8-.5 5.194 5.194 0 0 0 .7-2.1 23.243 23.243 0 0 0-1.3-12.5 41.11 41.11 0 0 0-6.4-10.3 35.96 35.96 0 0 1-5.5-10.2c-1.6-4.2-2.9-8.7-2.4-13.2.5-3.9 2.7-8.5 6.8-9.7 4.5-1.4 10.2.5 13.9 3.1 2.1 1.6 4.3 4.1 4.4 6.9.1 2.2-2.2 4.6-4.6 3.9s-3.8-2.9-6.2-3.6a2.527 2.527 0 0 0-1.7-.1 1.938 1.938 0 0 0-1 1.7 4.489 4.489 0 0 0 .4 2c1.8 4.7 4.5 9.1 6.7 13.6l4.5 9.8c2.1 4.8 4.2 9.6 5 14.7zM1105.368 105.9c-1.7 12.9-14.1 16.4-25.3 16.9a4.661 4.661 0 0 1-4.6-3.1c-.6-2.6 0-6 .1-8.7.1-5.7.3-11.4.7-17.1.7-8.2.3-16.6.1-24.9l-.3-9.9-.3-4.9c0-1.1-.4-2.6-.1-3.6a2.145 2.145 0 0 1 .9-1.2c3.4-3 8.1-.9 11.1 1.7 1.8 1.6 3 3.8 4.5 5.7 1.6 2.1 3.1 4.3 4.5 6.5a54.535 54.535 0 0 1 4.5 9.8 79.868 79.868 0 0 1 4.7 23.8 45.32 45.32 0 0 1-.5 9zm-12-16.2a39 39 0 0 0-.7-9 38.739 38.739 0 0 0-6.9-16.3c-.1-.2-.3-.2-.4-.3-.1.2-.2.3-.2.5.2 12.4 1 24.7.2 37.1-.1 2.6-.6 5.3-.7 7.9-.1 1.3-.5 3.4 1.2 2.6 3-1.3 3.9-2.3 4.7-5.4a56.717 56.717 0 0 0 1.6-8.2 32.659 32.659 0 0 1 .7-4.5 21.984 21.984 0 0 0 .499-4.4zM1147.167 120.1a4.359 4.359 0 0 1-3.9 2.8 3.7 3.7 0 0 1-3.1-1.6 13.955 13.955 0 0 1-2.4-6.9c-.4-3.7-1.1-7.4-1.6-11a7.719 7.719 0 0 1-.2-1.5c-.1-.7-.5-.8-1-.6-3.3.9-6.6.3-9.9.1-1.4-.1-2.8-.1-4.1-.1-.2 0-.4.3-.4.5-1.1 3.2-2.1 6.5-3.1 9.7-.7 2.2-1.5 4.3-2.3 6.5a24.342 24.342 0 0 1-1.6 3.7 3.585 3.585 0 0 1-6.1 0c-1-1.2-.7-2.4-.3-3.7.5-1.8 1.2-3.7 1.7-5.6.7-2.8 1.2-5.6 2-8.4.8-3.1 1.8-6.2 2.8-9.3 1.1-3.2 2.2-6.3 3.4-9.4 1.1-3.3 2.4-6.5 3.5-9.8s2.1-6.6 3.2-10a137.173 137.173 0 0 1 5.6-15.1c.5-1 1-2.1 2.4-2.3a7.472 7.472 0 0 1 3.9.6 6.418 6.418 0 0 1 .8.9c1.6 2.1 2.2 4.4 2.9 6.9a63.554 63.554 0 0 1 1.7 6.6c.6 2.9 1 5.9 1.5 8.9l1.5 9.4c.1.4.1.9.2 1.4h-.1c.2 2.2.3 4.4.5 6.5.2 3 .4 5.9.8 8.8.2 1.7.6 3.4.9 5.1.5 3.5 1.5 7.3 1.6 11.1a14.328 14.328 0 0 1-.8 5.8zm-12.3-27.9c.4-.3.1-.8 0-1.2-.2-1.1-.1-2.4-.2-3.5-.2-2.4-.3-4.7-.5-7a3.779 3.779 0 0 0-.1-1.1 11.489 11.489 0 0 0-.1-1.9c0-.8-.1-1.6-.1-2.4-.1-1.6-.3-3.2-.4-4.9 0-.3-.3-2.7-.9-1.4l-3.9 9.3c-1 2.4-1.8 4.9-2.7 7.3l-2.4 6.5c-.1.1 0 .3 0 .5a4.553 4.553 0 0 0 1.6-.3h1.7c1.9 0 3.8.1 5.7.1a8.541 8.541 0 0 0 1.7.1 1.264 1.264 0 0 0 .599-.1zM1187.467 58.093c-2.2 4.4-4.3 8.8-6.1 13.3-.9 2-1.7 4.1-2.5 6.1-.7 1.6-1.7 3-2.3 4.5a12.887 12.887 0 0 0-.8 3.8c-.4 3.1.1 6.1.2 9.2.2 3.4.2 6.9.1 10.4-.1 4.2 0 9.1-1.5 13.1a7.335 7.335 0 0 1-2.5 3.5c-3.1 2.3-6.3.7-7-3a19.527 19.527 0 0 1 0-4.2 229.164 229.164 0 0 0-.5-28.7 9.468 9.468 0 0 0-1.5-5.1c-2.8-3.8-5.4-7.8-8.3-11.5-2.2-2.8-4.6-5.5-6.1-8.8-1.1-2.3-3.2-5.3-2.9-7.9a5.033 5.033 0 0 1 2.4-3.6c1.6-1 4-1.7 5.6-.5 3.4 2.3 5.4 6.8 7.5 10.2 2.3 3.6 4.7 7.2 7.2 10.5a2.18 2.18 0 0 0 .7.6c.2-.2.5-.4.6-.7a63.192 63.192 0 0 1 2.5-6c1.1-2.3 2.5-4.4 3.7-6.6 1.7-3.1 2.4-8.5 7-8.5a14.8 14.8 0 0 1 2.1.2c1.3.2 2.3.5 2.9 1.7a8.294 8.294 0 0 1 .6 2.1 11.763 11.763 0 0 1-1.1 5.9z" transform="translate(-46.872 -32.611)"/>
      <path d="M525.7 47.058a39.685 39.685 0 1 0 39.685 39.687A39.733 39.733 0 0 0 525.7 47.058z" transform="translate(-46.872 -32.611)" fill="#00adee"/>
      <path d="M347.447 0h1.626v109.438h-1.626z"/>
      <path d="M342.932 104.214c-4.015-2.136-4.1-5.095-3.879-6.182.213-1.108 1-.624 1.5-.624 2.638 0 5.412-.756 8.83-4.136 3.857-3.815 5.066-12.282-.857-17.8-6.387-5.955-13.175-4.913-17.552.436a6.811 6.811 0 0 1-4.982 1.84c-2.809-.1-1.039 2.038-1.039 2.481s-.428.763-.676.693c-.954-.265-.571 1.1-.571 1.516a.647.647 0 0 1-.6.623c-1.181 0-.854 1.028-.819 1.314a.992.992 0 0 1-.463.962 2.462 2.462 0 0 0-.824 1.792c0 1.244 1.174 2.1 3.139 3.52a4.506 4.506 0 0 1 2.238 3.728 11.079 11.079 0 0 0 .574 3.554c.527 1.241.457 3.519-2.247 3.62-3.31.129-9.185 2.69-9.683 2.865a12.041 12.041 0 0 1-6.262.407 29.05 29.05 0 0 1-2.959-2.323 4.358 4.358 0 0 1 .958-3.606c1.1 1.07 2.742 1 3.662 1.031a44.2 44.2 0 0 0 6.091-.857 1.7 1.7 0 0 1 1.317 0c1.725.606 4.094.791 5.056-2.415s-1.314-2.31-1.6-2.174-.68.1-.537-.171c.422-.815-.209-.731-.568-.763a4.309 4.309 0 0 0-2.526 1.209.912.912 0 0 1-.927.241c-1.23-.593-4.885.264-6.021-1.655a62.985 62.985 0 0 0-1.457-9.659 1.294 1.294 0 0 1 .14-1.276c.93-1.352 3.491.1 4.882.07a2.5 2.5 0 0 0 2.386-1.261c.436-.53.756-.23 1-.377.3-.191.014-.571.122-.777s.233-.1.516-.345-.042-.759.108-.965c.407-.6 1.529-.122.857-1.686a2.492 2.492 0 0 1 .637-2.419c.809-1.007 3.924-5.254-1.564-9.662-5.237-4.206-10.544-3.868-13.962-.279s-1.708 8.837-1.352 10.213a2.9 2.9 0 0 1-1.851 3.175 26.55 26.55 0 0 0-4.683 3.167 27.939 27.939 0 0 1 18.126-25.374 14.6 14.6 0 0 0 1.53 1.582c-1.209.854-3.836 3.129-3.836 3.129s.359.052.693.133c.234.052.722.2.722.2s2.317-1.906 3.4-2.666a13.711 13.711 0 0 0 2.753 1.561c-.526.861-1.843 3.265-1.843 3.265s.3.174.575.352a3.889 3.889 0 0 1 .449.335s1.439-2.628 1.983-3.506a14.1 14.1 0 0 0 3.749.669v4.816c-.707-.018-2.53-.091-3.268-.164l-.467-.045.261.372a7.372 7.372 0 0 1 .481.8l.052.105.122.01c.537.042 2.2.1 2.819.115v8.76h1.254v-2c1.84-.087 3.37-.209 5.22-.366l.08-.011 1.624-1.39-.885.077a71.265 71.265 0 0 1-5.227.446s-.529.028-.812.045v-5.565a29.949 29.949 0 0 0 6.771-.917c.606 1.443 1.749 4.952 1.749 4.952l1.181-.356s-1.143-3.484-1.742-4.93a29.584 29.584 0 0 0 5.418-2.234 29.273 29.273 0 0 1 3.572 5.37c-.892.4-2.512.958-2.512.958a13.846 13.846 0 0 1 2.285.439s.46-.191.753-.317c.115.251.342.76.342.76l1.623.7-.188-.439s-.536-1.247-.662-1.533a44.934 44.934 0 0 0 5.025-2.819 27.3 27.3 0 0 1 4.707 15.322 27.742 27.742 0 0 1-11.429 22.311m-20.67-50.17a31.187 31.187 0 0 0-5.094 2.722 14.564 14.564 0 0 1-1.338-1.324 29.114 29.114 0 0 1 6.432-1.4m-1.742 4.75a12.1 12.1 0 0 1-2.314-1.255 30.486 30.486 0 0 1 5.2-2.662 42.9 42.9 0 0 0-2.888 3.917m4.261-3.669v4.609a13.148 13.148 0 0 1-3.07-.529 43.5 43.5 0 0 1 3.07-4.08m1.254 5.819a14.436 14.436 0 0 0 3.795-.68 40.584 40.584 0 0 1 2.478 4.648 28.634 28.634 0 0 1-6.273.84zm0-5.875a41.64 41.64 0 0 1 3.116 4.136 13.056 13.056 0 0 1-3.116.529zm6.631 2.47a12.361 12.361 0 0 1-2.313 1.251 45.507 45.507 0 0 0-2.91-3.923 30.416 30.416 0 0 1 5.223 2.672m2.363-2.09a11.917 11.917 0 0 1-1.338 1.32 30.77 30.77 0 0 0-5.056-2.711 29.144 29.144 0 0 1 6.394 1.391m3.564 7.08a28.232 28.232 0 0 1-5.08 2.056A42.594 42.594 0 0 0 331 59.822a14.209 14.209 0 0 0 2.753-1.561 29.889 29.889 0 0 1 4.843 4.268m-2.341-6.629a29.047 29.047 0 0 1 6.764 3.756 26.994 26.994 0 0 1-3.328 2.272 31.432 31.432 0 0 0-4.965-4.446 14.351 14.351 0 0 0 1.529-1.582m12.694 9.693a40.893 40.893 0 0 1-4.857 2.725 30.6 30.6 0 0 0-3.6-5.46 28.73 28.73 0 0 0 3.512-2.439 28.544 28.544 0 0 1 4.944 5.174m-23.53-12.917c-16.639 0-30.172 13.112-30.172 29.232s13.533 29.227 30.172 29.227 30.169-13.117 30.169-29.235-13.537-29.229-30.168-29.229M292.518 60.441l-.47.4c-1.771 1.516-5.813 5.523-5.192 9.921l.062.306.2.871.565-.5c2.474-2.2 4.335-5.917 5.091-10.206l.216-1.209zM284.307 68.033l-.2.533a19.519 19.519 0 0 0-1.066 4.324c-.38 2.9-.293 7.007 2.307 10.07l.285.363.3.372.387-1.864c.429-3.293-.139-10.2-1.383-13.276l-.432-1.045zM281.31 79.906l-.038.543c-.217 2.955-.06 10.241 6.031 14.109l.725.453-.035-.83c-.105-2.766-3.436-11.021-5.937-13.979l-.708-.84zM282.359 92.948l.1.5c.889 4.188 4.99 10.976 11.321 12.941l.868.272-.314-.826c-1.181-3.132-7.286-10.432-11.206-12.84l-.881-.544zM295.078 66.75l-.5.3c-4.715 2.784-6.92 6.164-6.75 10.332l.042.951.683-.558c2.551-2.041 5.739-7.268 6.683-10.233l.342-1.084zM292.307 75.874l-.359.328c-1.21 1.115-5.112 5.136-4.774 10.115a9.159 9.159 0 0 0 .536 2.446l.276.8.5-.683c1.864-2.544 4.341-9.259 4.206-12.381l-.042-.947zM292.508 84.516l-.268.38a14.444 14.444 0 0 0-2.91 8.422 10.192 10.192 0 0 0 1.941 5.638l.411.6.346-.631c.853-1.551 1.526-6.575 1.428-10.547a13.6 13.6 0 0 0-.425-3.359l-.258-.879zM294.791 93.755l-.122.4a16.019 16.019 0 0 0-.826 5.345 10.434 10.434 0 0 0 5.255 8.979l.571.349.122-.746c0-.014.053-.592.053-.592-.094-3.14-2.513-11.05-4.4-13.464l-.523-.666zM288.146 106.00999999999999l.244.4c2.54 4.122 6.847 9.439 14.9 8.073l.672-.111-.38-.547c-1.5-2.168-11.282-7.513-14.739-8.06l-.944-.153zM300.065 116.479l-1.265.332 1.213.48c5.122 2.032 11.544 2.635 15.269 1.419a8.406 8.406 0 0 0 3.289-2.185c6.551.655 12.69 5.937 16.269 10.248l.192.216.278-.088a4.159 4.159 0 0 0 1.283-.867l.25-.265-.226-.289a32.307 32.307 0 0 0-9.833-7.777c-5.262-2.485-14.548-4.422-26.719-1.224" transform="translate(-46.872 -32.611)"/>
      <path d="M300.335 103.281l.074.414c.766 4.677 2.724 10.813 10.878 10.133l.523-.038-.133-.5c-.55-2.125-8.017-8.3-10.627-10.039l-.784-.393zM357.961 60.032l.216 1.205c.757 4.293 2.617 8.011 5.095 10.206l.564.5s.195-.865.195-.871l.066-.307c.624-4.394-3.418-8.4-5.188-9.92l-.474-.4zM366.449 67.509l-.429 1.045c-1.251 3.08-1.822 9.983-1.39 13.279l.387 1.861.3-.369.289-.363c2.6-3.066 2.69-7.171 2.3-10.073a19.826 19.826 0 0 0-1.059-4.325l-.206-.533zM369.607 79.362l-.711.84c-2.5 2.958-5.833 11.213-5.934 13.979l-.031.83.714-.453c6.094-3.868 6.251-11.154 6.038-14.109l-.042-.543zM368.7 92.45l-.886.544c-3.92 2.407-10.024 9.7-11.2 12.836l-.317.83.871-.272c6.328-1.969 10.429-8.753 11.318-12.941l.111-.5zM355.618 66.314l.324 1.087c.875 2.986 3.958 8.269 6.467 10.363l.68.568.055-.955c.255-4.16-1.885-7.582-6.54-10.457l-.5-.3zM358.294 75.548l-.038.947c-.129 3.123 2.338 9.834 4.205 12.377l.5.687.283-.8a9.4 9.4 0 0 0 .529-2.446c.342-4.979-3.564-9-4.773-10.115l-.352-.328zM358.19 84.136l-.269.878a13.293 13.293 0 0 0-.422 3.359c-.1 3.972.576 9 1.422 10.551l.349.627.418-.6a10.166 10.166 0 0 0 1.93-5.637 14.388 14.388 0 0 0-2.906-8.422l-.261-.38zM356.025 93.363l-.516.662c-1.892 2.414-4.31 10.324-4.4 13.467 0 0 .046.578.049.592l.122.743.572-.345a10.431 10.431 0 0 0 5.254-8.98 15.8 15.8 0 0 0-.826-5.348l-.129-.4zM363.05 105.612l-.941.149c-3.456.547-13.237 5.9-14.742 8.063l-.38.544.672.115c8.063 1.366 12.367-3.955 14.9-8.077l.244-.394zM324.172 117.7a32.219 32.219 0 0 0-9.834 7.777l-.226.289.254.265a4.078 4.078 0 0 0 1.279.868l.275.087.192-.216c3.575-4.311 9.715-9.593 16.269-10.248a8.345 8.345 0 0 0 3.3 2.185c3.718 1.216 10.14.613 15.266-1.419l1.212-.48-1.265-.331c-12.178-3.2-21.461-1.262-26.718 1.223M350.686 102.863l-.781.393c-2.613 1.736-10.08 7.914-10.631 10.039l-.125.5.516.038c8.153.68 10.115-5.456 10.882-10.133l.073-.414zM142.988 74.173h8.663v44.343h-8.663zm-.815-19.437h10.3v9.1h-10.3zM77.6 74.211h8.662v44.346h-8.48v-6.54H77.6c-3.467 5.568-9.3 7.861-15.687 7.861-9.572 0-15.042-7.067-15.042-15.987v-29.68h8.665v26.238c0 7.686 1.823 13.335 10.119 13.335 3.558 0 8.387-1.767 10.21-6.356A32 32 0 0 0 77.6 97zM103.558 80.745h.184c2.913-5.564 9.3-7.857 13.858-7.857 3.188 0 17.321.794 17.321 15.014v30.653h-8.659V90.641c0-7.331-3.191-11.3-10.484-11.3a12.144 12.144 0 0 0-8.391 3.265c-1.275 1.237-3.645 3.177-3.645 11.836v24.116h-8.665V74.212h8.481zM187.925 88.435c-.453-5.533-3.168-9.387-9.332-9.387-8.233 0-11.411 6.923-11.411 17.286s3.178 17.294 11.411 17.294c5.7 0 9.234-3.589 9.687-9.921h8.614c-.736 9.921-8.335 15.973-18.4 15.973-14.579 0-20.377-10-20.377-22.994 0-12.917 6.7-23.705 21.116-23.705 9.6 0 16.84 5.889 17.279 15.454zM232.837 92.125c.182-7.369-3.268-13.077-11.6-13.077-7.165 0-11.408 5.864-11.408 13.077zm-23.007 5.784c-.635 7.726 2.627 15.719 11.408 15.719 6.7 0 10.056-2.54 11.045-8.966h9.07c-1.366 10.022-9.338 15.015-20.2 15.015-14.589 0-20.4-10-20.4-22.991 0-12.92 6.718-23.7 21.116-23.7 13.583.275 20.011 8.6 20.011 20.816v4.111zM251.638 118.364V80.1h-7.826v-5.8h7.826v-9.475c.282-9.655 7.788-12.2 14.224-12.2a37.757 37.757 0 0 1 6.171.871v6.931c-1.464-.074-2.906-.269-4.363-.269-4.882 0-7.694 1.244-7.429 6.063V74.3h10.513v5.8h-10.513v38.267z" transform="translate(-46.872 -32.611)"/>
    </g>
</svg>
